<svg width="24" height="20" viewBox="0 0 24 20" fill="none" xmlns="http://www.w3.org/2000/svg">
<path d="M10.0525 0C10.2706 0.06391 10.3928 0.490981 10.4817 0.691063C12.2876 2.4486 16.0817 0.517231 18.1996 0.311639C20.034 0.13356 21.9072 0.240484 23.3285 1.24656C25.1983 2.35956 20.1676 0.258459 16.6951 2.31504C14.291 2.53763 12.6438 2.04792 11.121 2.4486C9.48286 2.87962 9.3361 4.4114 9.73105 5.33545C9.76408 5.51708 9.16406 4.34394 9.17621 3.78515C9.20488 2.46635 10.0066 1.30678 10.0525 0Z" fill="url(#paint0_linear_327_3)"/>
<path d="M1.46915 6.7669C1.14091 6.94026 0.409808 7.5012 0 7.6573C2.0234 9.5053 6.55113 5.7169 9.74984 8.45866C16.451 0.800105 19.1154 16.8483 8.39376 19.9479C8.08322 20.0315 10.5495 19.9893 11.0854 19.9893C23.3729 17.1846 18.4232 -2.55294 9.74984 7.06807C7.56224 4.95397 3.91533 5.43262 1.46915 6.7669Z" fill="url(#paint1_linear_327_3)"/>
<path d="M8.50341 11.3081C6.92353 12.9998 3.0944 10.6848 1.33573 10.6848C1.1671 11.0221 1.46928 11.4862 1.11313 11.7978C-1.041 13.6827 4.86121 18.8681 7.07878 16.6505C5.25347 16.7606 1.33573 14.4534 2.08862 12.1369C3.60624 12.2875 10.1061 13.8012 8.50341 11.3081Z" fill="url(#paint2_linear_327_3)"/>
<defs>
<linearGradient id="paint0_linear_327_3" x1="12.7123" y1="2.10876" x2="25.7771" y2="1.7808" gradientUnits="userSpaceOnUse">
<stop stop-color="#3AFF04"/>
<stop offset="1" stop-color="#EEFFE0"/>
</linearGradient>
<linearGradient id="paint1_linear_327_3" x1="21.7256" y1="6.9895" x2="15.849" y2="6.9895" gradientUnits="userSpaceOnUse">
<stop stop-color="#FFEB00"/>
<stop offset="1" stop-color="#FF9F04"/>
</linearGradient>
<linearGradient id="paint2_linear_327_3" x1="12.8218" y1="11.2636" x2="3.60623" y2="11.8423" gradientUnits="userSpaceOnUse">
<stop stop-color="#FFEB00"/>
<stop offset="1" stop-color="#FF9F04"/>
</linearGradient>
</defs>
</svg>
